<?xml version="1.0" ?><svg viewBox="0 0 64 64" xmlns="http://www.w3.org/2000/svg"><defs><style>.cls-1{fill:none;stroke:#000;stroke-linejoin:round;stroke-width:2px;}</style></defs><title/><g data-name="Layer 4" id="Layer_4"><rect class="cls-1" height="6" width="60" x="2" y="56"/><rect class="cls-1" height="10" width="60" x="2" y="2"/><line class="cls-1" x1="4" x2="4" y1="12" y2="56"/><line class="cls-1" x1="32" x2="32" y1="12" y2="56"/><line class="cls-1" x1="60" x2="60" y1="12" y2="56"/><polyline class="cls-1" points="8 56 8 18 28 18 28 56"/><circle class="cls-1" cx="18" cy="26" r="2"/><polygon class="cls-1" points="14 38 22 38 18 31 14 38"/><line class="cls-1" x1="11" x2="25" y1="44" y2="44"/><line class="cls-1" x1="11" x2="25" y1="48" y2="48"/><line class="cls-1" x1="11" x2="25" y1="52" y2="52"/><polyline class="cls-1" points="36 56 36 18 56 18 56 56"/><circle class="cls-1" cx="46" cy="26" r="2"/><polygon class="cls-1" points="42 31 50 31 46 38 42 31"/><line class="cls-1" x1="39" x2="53" y1="44" y2="44"/><line class="cls-1" x1="39" x2="53" y1="48" y2="48"/><line class="cls-1" x1="39" x2="53" y1="52" y2="52"/></g></svg>