<?xml version="1.0" ?><!DOCTYPE svg  PUBLIC '-//W3C//DTD SVG 1.1//EN'  'http://www.w3.org/Graphics/SVG/1.1/DTD/svg11.dtd'><svg enable-background="new 0 0 300 300" height="300px" id="Layer_1" version="1.1" viewBox="0 0 300 300" width="300px" xml:space="preserve" xmlns="http://www.w3.org/2000/svg" xmlns:xlink="http://www.w3.org/1999/xlink"><line fill="none" stroke="#000000" stroke-linecap="round" stroke-linejoin="round" stroke-miterlimit="10" stroke-width="7" x1="169" x2="141" y1="182.5" y2="182.5"/><path d="  M113,182.5H77.005c0-43,35.321-78.896,78.896-78.896s78.896,35.896,78.896,78.896H197" fill="none" stroke="#000000" stroke-linecap="round" stroke-linejoin="round" stroke-miterlimit="10" stroke-width="7"/><line fill="none" stroke="#000000" stroke-linecap="round" stroke-linejoin="round" stroke-miterlimit="10" stroke-width="7" x1="155.5" x2="155.5" y1="67" y2="90"/><line fill="none" stroke="#000000" stroke-linecap="round" stroke-linejoin="round" stroke-miterlimit="10" stroke-width="6.982" x1="73.946" x2="90.239" y1="100.946" y2="117.239"/><line fill="none" stroke="#000000" stroke-linecap="round" stroke-linejoin="round" stroke-miterlimit="10" stroke-width="6.982" x1="221.563" x2="237.856" y1="117.238" y2="100.946"/><line fill="none" stroke="#000000" stroke-linecap="round" stroke-linejoin="round" stroke-miterlimit="10" stroke-width="6.982" x1="221.563" x2="237.856" y1="117.238" y2="100.946"/><line fill="none" stroke="#000000" stroke-linecap="round" stroke-linejoin="round" stroke-miterlimit="10" stroke-width="7" x1="272" x2="235" y1="182.5" y2="182.5"/><line fill="none" stroke="#000000" stroke-linecap="round" stroke-linejoin="round" stroke-miterlimit="10" stroke-width="7" x1="77" x2="40" y1="182.5" y2="182.5"/><path d="  M112.5,131v23.972c0,8.483,7.017,15.36,15.5,15.36s15.5-6.877,15.5-15.36V131" fill="none" stroke="#000000" stroke-linecap="round" stroke-linejoin="round" stroke-miterlimit="10" stroke-width="7"/><line fill="none" stroke="#000000" stroke-linecap="round" stroke-linejoin="round" stroke-miterlimit="10" stroke-width="7" x1="127.5" x2="127.5" y1="131" y2="207"/><rect fill="none" height="20.945" stroke="#000000" stroke-linecap="round" stroke-linejoin="round" stroke-miterlimit="10" stroke-width="14" width="0" x="128" y="199.657"/><path d="  M169.865,156.371c0,8.483,5.48,15.36,13.964,15.36s13.964-6.877,13.964-15.36c0,0-0.697-25.135-13.964-25.135  C170.563,131.236,169.865,156.371,169.865,156.371z" fill="none" stroke="#000000" stroke-linecap="round" stroke-linejoin="round" stroke-miterlimit="10" stroke-width="6.982"/><line fill="none" stroke="#000000" stroke-linecap="round" stroke-linejoin="round" stroke-miterlimit="10" stroke-width="7" x1="183.5" x2="183.5" y1="172" y2="209"/><rect fill="none" height="20.945" stroke="#000000" stroke-linecap="round" stroke-linejoin="round" stroke-miterlimit="10" stroke-width="14" width="0" x="184" y="201.057"/></svg>