<?xml version="1.0" ?><svg viewBox="0 0 64 64" xmlns="http://www.w3.org/2000/svg"><defs><style>.cls-1{fill:none;stroke:#000;stroke-linejoin:round;stroke-width:2px;}</style></defs><title/><g data-name="Layer 27" id="Layer_27"><polyline class="cls-1" points="38 8 62 8 62 22 2 22 2 8 26 8"/><polyline class="cls-1" points="6 22 6 62 58 62 58 22"/><polyline class="cls-1" points="12 62 12 46 28 46 28 62"/><line class="cls-1" x1="20" x2="20" y1="46" y2="62"/><polyline class="cls-1" points="36 62 36 46 52 46 52 62"/><line class="cls-1" x1="44" x2="44" y1="46" y2="62"/><line class="cls-1" x1="6" x2="58" y1="42" y2="42"/><line class="cls-1" x1="6" x2="58" y1="26" y2="26"/><line class="cls-1" x1="14" x2="22" y1="38" y2="30"/><line class="cls-1" x1="28" x2="36" y1="38" y2="30"/><line class="cls-1" x1="42" x2="50" y1="38" y2="30"/><polygon class="cls-1" points="39 16 25 16 27 2 37 2 39 16"/><path class="cls-1" d="M30,5V7a2,2,0,0,0,2,2h0a2,2,0,0,0,2-2V5"/></g></svg>