<?xml version="1.0" ?><svg viewBox="0 0 64 64" xmlns="http://www.w3.org/2000/svg"><title/><g data-name="Layer 23" id="Layer_23"><rect height="2" width="18" x="9" y="51"/><rect height="2" width="18" x="9" y="55"/><rect height="2" width="2" x="49" y="43"/><rect height="2" width="2" x="53" y="43"/><rect height="2" width="2" x="9" y="43"/><rect height="2" width="2" x="25" y="43"/><rect height="2" width="2" x="13" y="43"/><rect height="2" width="2" x="21" y="43"/><rect height="2" width="2" x="17" y="43"/><path d="M5,61H31V39H5ZM7,42a1,1,0,0,1,1-1H28a1,1,0,0,1,1,1v4a1,1,0,0,1-1,1H8a1,1,0,0,1-1-1Zm0,8a1,1,0,0,1,1-1H28a1,1,0,0,1,1,1v8a1,1,0,0,1-1,1H8a1,1,0,0,1-1-1Z"/><path d="M33,61H59V39H33Zm2-19a1,1,0,0,1,1-1H56a1,1,0,0,1,1,1v4a1,1,0,0,1-1,1H36a1,1,0,0,1-1-1Zm0,8a1,1,0,0,1,1-1H56a1,1,0,0,1,1,1v8a1,1,0,0,1-1,1H36a1,1,0,0,1-1-1Z"/><rect height="2" width="18" x="37" y="55"/><rect height="2" width="18" x="37" y="51"/><rect height="2" width="58" x="3" y="35"/><rect height="2" width="2" x="41" y="43"/><rect height="2" width="2" x="37" y="43"/><rect height="2" width="2" x="45" y="43"/><path d="M47,7h4V9H47Zm-8.59,8,4-4H55.59l4,4Z"/><rect height="4" width="60" x="2" y="2"/><path d="M55,30V26a1,1,0,0,0-1-1H51v2h2v3H45V27h2V25H44a1,1,0,0,0-1,1v4H42v4H56V30Z"/><path d="M7,20a4,4,0,0,0-4,4V34H5V24a2,2,0,0,1,4,0v2h2V24A4,4,0,0,0,7,20Z"/><rect height="4" width="12" x="8" y="30"/><rect height="4" width="14" x="24" y="30"/></g></svg>